<svg viewBox="0 0 60 60" xmlns="http://www.w3.org/2000/svg"><path d="M29.58 41.566H6.547a4.959 4.959 0 0 1-4.959-4.959V14.292a4.959 4.959 0 0 1 4.959-4.959h37.192a4.959 4.959 0 0 1 4.961 4.959v22.315a4.958 4.958 0 0 1-2.557 4.34M42.499 36.607h6.199M1.588 36.607h25.105M34.441 48.385h-1.976a3.719 3.719 0 0 1-3.63-2.913l-.593-3.906h-6.2l-.593 3.906a3.719 3.719 0 0 1-3.631 2.913h16.623Z" stroke="#383838" fill="none" stroke-linecap="round" stroke-linejoin="round" stroke-width="1.5px" class="stroke-1c4db8"></path><circle cx="10.886" cy="20.848" r="4.959" stroke="#383838" fill="none" stroke-linecap="round" stroke-linejoin="round" stroke-width="1.5px" class="stroke-1c4db8"></circle><circle cx="10.886" cy="20.538" r="1.55" stroke="#383838" fill="none" stroke-linecap="round" stroke-linejoin="round" stroke-width="1.5px" class="stroke-1c4db8"></circle><path d="M7.519 24.489a3.829 3.829 0 0 1 3.367-1.781 3.828 3.828 0 0 1 3.367 1.781" stroke="#383838" fill="none" stroke-linecap="round" stroke-linejoin="round" stroke-width="1.5px" class="stroke-1c4db8"></path><path d="m37.516 35.812 2.9-3.02a.5.5 0 0 0-.2-.825l-12.434-4.146a.5.5 0 0 0-.63.656l4.664 12.241a.5.5 0 0 0 .833.17l2.9-3.022 6.311 6.052a.5.5 0 0 0 .711-.015l1.274-1.328a.5.5 0 0 0-.015-.711ZM28.925 55.858a8.181 8.181 0 0 1 .877.36c.3.143.6.3.891.458a21.95 21.95 0 0 1 1.682 1.038q.624.421 1.223.878a1.28 1.28 0 0 0 .1.079c-.057-.033-.129-.1-.031-.024l.141.111c.044.035.088.07.13.1a.779.779 0 0 0 .909.117.76.76 0 0 0 .345-.847c-.216-.693-.447-1.382-.65-2.08a32.87 32.87 0 0 1-.463-1.75c-.062-.269-.12-.539-.167-.811l-.026-.158-.015-.1c.015.108.018.134.011.076-.009-.111-.024-.222-.03-.334a.766.766 0 0 0-.75-.75.758.758 0 0 0-.75.75 15.518 15.518 0 0 0 .726 3.417c.208.719.445 1.427.668 2.141L35 57.8a19.263 19.263 0 0 0-5.678-3.391.751.751 0 0 0-.4 1.447ZM43.674 47.545a22.821 22.821 0 0 0 3.014 4.938.751.751 0 0 0 1.06 0 .772.772 0 0 0 0-1.061 21.933 21.933 0 0 1-2.779-4.635.753.753 0 0 0-1.026-.269.774.774 0 0 0-.269 1.027Z" fill="#00d395" class="fill-e82e5f"></path><path d="M42.258 48.92a15.729 15.729 0 0 0 4.547-2.54.751.751 0 0 0-.905-1.18l-.178.127a.75.75 0 1 0 .757 1.3l.178-.127-.909-1.177-.116.091c.055-.042.047-.036-.024.017s-.158.119-.238.177q-.241.176-.49.34-.485.322-.992.606t-1.036.526l-.273.121c-.082.036-.091.039-.026.012l-.138.056q-.274.11-.553.207a.751.751 0 1 0 .4 1.447ZM48.5 44.724q.3 1.437.7 2.851c.134.471.272.942.425 1.406a1.953 1.953 0 0 0 .788 1.159c.793.462 1.975-.048 2.693-.462a5.325 5.325 0 0 0 1.843-1.79.75.75 0 0 0-1.295-.757 3.7 3.7 0 0 1-1.272 1.232 2.938 2.938 0 0 1-.814.358 2.209 2.209 0 0 1-.461.109c.055-.015.035-.018-.058-.011l.15.042c-.074-.044-.076-.044-.007 0l.013.02c-.008-.02-.1-.192-.074-.126s-.051-.145-.06-.173c-.061-.186-.118-.374-.175-.561q-.187-.609-.354-1.223-.336-1.227-.6-2.474a.75.75 0 1 0-1.446.4Z" fill="#00d395" class="fill-e82e5f"></path><path d="M49.749 45.055c.13-.12.265-.234.4-.346.046-.037.068-.054.008-.008a8.315 8.315 0 0 1 .361-.259 9.456 9.456 0 0 1 .99-.593c.167-.086.336-.166.507-.243.051-.023.087-.037.014-.007l.13-.053.259-.1a7.554 7.554 0 0 1 1.107-.3.755.755 0 0 0 .524-.923.769.769 0 0 0-.923-.523 9.378 9.378 0 0 0-4.44 2.3.756.756 0 0 0 0 1.061.768.768 0 0 0 1.061 0ZM50.252 47.858a18.544 18.544 0 0 0 2.872-1.681.808.808 0 0 0 .345-.448.767.767 0 0 0-.076-.578.759.759 0 0 0-1.026-.269 18.459 18.459 0 0 1-2.872 1.68.754.754 0 0 0-.269 1.027.772.772 0 0 0 1.026.269Z" fill="#00d395" class="fill-e82e5f"></path><ellipse cx="39.128" cy="52.789" rx="1.915" ry="3.072" transform="rotate(-15.674 39.129 52.787)" stroke="#00d395" fill="none" stroke-linecap="round" stroke-linejoin="round" stroke-width="1.5px" class="stroke-e82e5f"></ellipse><path d="m56.207 38.928 1.102 4.543M58.083 46.659l.329 1.355" stroke="#00d395" fill="none" stroke-linecap="round" stroke-linejoin="round" stroke-width="1.5px" class="stroke-e82e5f"></path><circle cx="25.143" cy="20.848" r="4.959" stroke="#383838" fill="none" stroke-linecap="round" stroke-linejoin="round" stroke-width="1.5px" class="stroke-1c4db8"></circle><circle cx="25.143" cy="20.538" r="1.55" stroke="#383838" fill="none" stroke-linecap="round" stroke-linejoin="round" stroke-width="1.5px" class="stroke-1c4db8"></circle><path d="M21.776 24.489a3.829 3.829 0 0 1 3.367-1.781 3.828 3.828 0 0 1 3.367 1.781" stroke="#383838" fill="none" stroke-linecap="round" stroke-linejoin="round" stroke-width="1.5px" class="stroke-1c4db8"></path><circle cx="39.4" cy="20.848" r="4.959" stroke="#383838" fill="none" stroke-linecap="round" stroke-linejoin="round" stroke-width="1.5px" class="stroke-1c4db8"></circle><circle cx="39.4" cy="20.538" r="1.55" stroke="#383838" fill="none" stroke-linecap="round" stroke-linejoin="round" stroke-width="1.5px" class="stroke-1c4db8"></circle><path d="M36.033 24.489a4.073 4.073 0 0 1 6.734 0" stroke="#383838" fill="none" stroke-linecap="round" stroke-linejoin="round" stroke-width="1.5px" class="stroke-1c4db8"></path></svg>