<?xml version="1.0" ?><svg viewBox="0 0 60 60" xmlns="http://www.w3.org/2000/svg"><defs><style>.a,.c{fill:none;stroke-linecap:round;stroke-linejoin:round;stroke-width:1.5px;}.a{stroke:#1c4db8;}.b{fill:#e82e5f;}.c{stroke:#e82e5f;}</style></defs><title/><path class="a" d="M34.379,52.093,17.23,57.575a1.93,1.93,0,0,1-2.425-1.251L1.99,16.485a1.928,1.928,0,0,1,1.25-2.424l6.426-2.054"/><path class="a" d="M45.122,47.87,18.954,52.551a1.929,1.929,0,0,1-2.239-1.559L9.269,9.81a1.929,1.929,0,0,1,1.559-2.238L39.944,2.364a1.927,1.927,0,0,1,2.238,1.559l2.331,12.89"/><path class="b" d="M51.276,41.216a12.975,12.975,0,1,0-4.221,1.406l3.81,11.434a2.224,2.224,0,0,0,4.22-1.406Zm-14.5-5.911A10.008,10.008,0,1,1,50.64,38.143,10.007,10.007,0,0,1,36.773,35.305Z"/><path class="c" d="M45.122,22.747a6.978,6.978,0,0,0-2.224.36"/><path class="c" d="M51.677,27.191a7.089,7.089,0,0,0-3.17-3.58"/><path class="a" d="M23.523,14.241a4.5,4.5,0,1,1-4.713-2.218"/><circle class="a" cx="21.867" cy="29.113" r="4.501"/><circle class="a" cx="24.131" cy="41.772" r="4.501"/><path class="b" d="M17.223,16.138a10.024,10.024,0,0,1,2.25,1.749.756.756,0,0,0,1.254-.33,16.735,16.735,0,0,1,3.522-7.575.772.772,0,0,0,0-1.061.756.756,0,0,0-1.061,0,18.259,18.259,0,0,0-3.908,8.237l1.254-.331a11.464,11.464,0,0,0-2.554-1.984.75.75,0,0,0-.757,1.3Z"/><line class="a" x1="28.932" x2="34.719" y1="11.669" y2="10.383"/><line class="a" x1="29.575" x2="38.577" y1="16.17" y2="14.241"/></svg>