<?xml version="1.0" ?><svg viewBox="0 0 60 60" xmlns="http://www.w3.org/2000/svg"><defs><style>.a,.c{fill:none;stroke-linecap:round;stroke-linejoin:round;}.a{stroke:#1c4db8;stroke-width:1.5px;}.b{fill:#e82e5f;}.c{stroke:#e82e5f;stroke-width:2.5px;}.d{fill:#1c4db8;}</style></defs><title/><path class="a" d="M16.124,38.85a9.81,9.81,0,1,0,5.623,7.473"/><path class="b" d="M47.914,37.224A10.586,10.586,0,1,0,58.5,47.81,10.586,10.586,0,0,0,47.914,37.224ZM53.1,51.582A1,1,0,0,1,51.686,53l-3.772-3.772L44.143,53a1,1,0,0,1-1.414-1.414L46.5,47.81l-3.771-3.771a1,1,0,0,1,1.414-1.414L47.914,46.4l3.772-3.771A1,1,0,0,1,53.1,44.039L49.328,47.81Z"/><polyline class="c" points="8.014 46.996 11.679 50.66 21.857 40.482"/><path class="d" d="M29.237.792c-3.59.409-9.545,1.6-10.14,6.081a3.186,3.186,0,0,0,0,.925l.523-.922a4.856,4.856,0,0,0-3.787,4.181,6.39,6.39,0,0,0,3.6,6.541A5.464,5.464,0,0,0,21.439,18a.76.76,0,0,0,.723-.949,15.58,15.58,0,0,1-.2-4.88l-.949.723A30.4,30.4,0,0,0,29.6,14.266c2.838.09,5.747-.406,7.9-2.4l-1.254-.331a17.765,17.765,0,0,1,.314,5.014c-.042.627.655.854,1.129.648a3.141,3.141,0,0,0,.943-.926A13.48,13.48,0,0,0,40.076,14.1a10.6,10.6,0,0,0,1.275-6.059,8.2,8.2,0,0,0-1.6-4.323,7.679,7.679,0,0,0-3.73-2.484,16.447,16.447,0,0,0-6.78-.444c-.95.1-.96,1.6,0,1.5,2.955-.315,6.7-.369,8.954,1.92,2.13,2.16,2.1,5.835.93,8.442a12.167,12.167,0,0,1-1.414,2.381,7.771,7.771,0,0,1-.55.65c-.07.073-.141.143-.215.213-.142.135.071-.031-.014.006l1.128.648a19.22,19.22,0,0,0-.367-5.413.758.758,0,0,0-1.254-.33c-1.947,1.8-4.656,2.053-7.191,1.943a28.748,28.748,0,0,1-7.829-1.3.762.762,0,0,0-.95.724,16.831,16.831,0,0,0,.251,5.279l.723-.95a3.767,3.767,0,0,1-1.591-.346,4.069,4.069,0,0,1-2.177-2.509c-.47-1.434-.646-3.192.526-4.328a3.86,3.86,0,0,1,1.821-1,.77.77,0,0,0,.524-.922c.062.412.02-.141.025-.281.008-.223-.029.11.008-.067.019-.1.037-.193.061-.288s.057-.2.088-.295c.017-.053.038-.105.058-.157,0,0-.032.061.03-.065a6.194,6.194,0,0,1,3.425-2.8,19.455,19.455,0,0,1,5-1.153C30.185,2.184,30.2.683,29.237.792Z"/><path class="a" d="M21.215,12.174s-1.63,12.109,8.521,12.109,7.23-12.944,7.23-12.944"/><path class="d" d="M47.869,35.043a9.116,9.116,0,0,0-3.028-4.813,15.946,15.946,0,0,0-4.267-2.5l-3.69-1.64a6.581,6.581,0,0,0-1.184-.482,2.243,2.243,0,0,0-1.994.722l-1.548,1.316a4.107,4.107,0,0,1-1.484.955c-1.612.47-2.7-.7-3.8-1.638-.381-.324-.753-.663-1.148-.97a2.022,2.022,0,0,0-2.191-.162c-1.153.507-2.3,1.023-3.452,1.534A20.819,20.819,0,0,0,15.634,29.7a9.489,9.489,0,0,0-3.672,5.34c-.192.943,1.253,1.346,1.447.4a7.983,7.983,0,0,1,2.919-4.388,16.023,16.023,0,0,1,3.847-2.1l3.57-1.587c.276-.122.627-.376.915-.276a4.3,4.3,0,0,1,1.057.854c1.018.865,2.02,1.929,3.386,2.183a4.227,4.227,0,0,0,3.045-.565,11.674,11.674,0,0,0,1.194-.961l1.488-1.266c.251-.213.4-.317.714-.21,1.122.386,2.21.982,3.3,1.464a24.713,24.713,0,0,1,4,1.966,8.262,8.262,0,0,1,3.586,4.886c.193.945,1.639.545,1.446-.4Z"/></svg>