<svg viewBox="0 0 60 60" xmlns="http://www.w3.org/2000/svg"><path d="m25.136 14.93 7.751-12.366a2.27 2.27 0 0 1 3.129-.717l10.522 6.6a2.27 2.27 0 0 1 .718 3.128l-2.75 4.385M37.288 27.472l-2.02 3.228a2.27 2.27 0 0 1-3.128.718l-6.06-3.8M25.94 40.512h8.12M14.653 43.859a1.031 1.031 0 0 0-.053.231V58.5h30.8V44.09a1.031 1.031 0 0 0-.053-.231ZM17.594 37.727l-2.471 5.061-.422.863a1.031 1.031 0 0 0-.048.208h30.694a1.031 1.031 0 0 0-.048-.208l-.422-.863-2.471-5.061a1 1 0 0 0-.9-.561H18.492a1 1 0 0 0-.898.561Z" fill="none" stroke="#00d395" stroke-linecap="round" stroke-linejoin="round" stroke-width="1.5px" class="stroke-1c4db8"></path><path d="M56.8 23.4a5.218 5.218 0 0 0-5.212-5.211H8.414A5.218 5.218 0 0 0 3.2 23.4v30.639a5.218 5.218 0 0 0 5.214 5.211h43.172a5.218 5.218 0 0 0 5.214-5.211V23.4Zm-39.245-2.431a1.079 1.079 0 1 1-1.079 1.079 1.078 1.078 0 0 1 1.079-1.079Zm-4.127 0a1.079 1.079 0 1 1-1.078 1.079 1.079 1.079 0 0 1 1.078-1.079Zm-4.127 0a1.079 1.079 0 1 1-1.078 1.079A1.079 1.079 0 0 1 9.3 20.969Zm46 33.07a3.716 3.716 0 0 1-3.712 3.711H8.414A3.716 3.716 0 0 1 4.7 54.039V25.55h50.6Z" fill="#383838" class="fill-e82e5f"></path></svg>